<svg width="28" height="27" viewBox="0 0 28 27" fill="none" xmlns="http://www.w3.org/2000/svg">
<path d="M9.30382 8.1749L1.32882 9.33115L1.18757 9.3599C0.973748 9.41667 0.778817 9.52916 0.622689 9.68591C0.466561 9.84265 0.354828 10.038 0.298901 10.2521C0.242975 10.4661 0.244858 10.6912 0.304358 10.9042C0.363858 11.1173 0.478844 11.3108 0.637574 11.4649L6.41507 17.0887L5.05257 25.0324L5.03632 25.1699C5.02323 25.3911 5.06916 25.6117 5.16939 25.8093C5.26962 26.0069 5.42055 26.1742 5.60674 26.2943C5.79293 26.4144 6.00768 26.4828 6.22901 26.4925C6.45033 26.5023 6.67028 26.4531 6.86632 26.3499L13.9988 22.5999L21.1151 26.3499L21.2401 26.4074C21.4464 26.4887 21.6706 26.5136 21.8898 26.4796C22.1089 26.4456 22.3151 26.3539 22.4871 26.214C22.6591 26.074 22.7908 25.8908 22.8686 25.6832C22.9465 25.4756 22.9677 25.2509 22.9301 25.0324L21.5663 17.0887L27.3463 11.4637L27.4438 11.3574C27.5831 11.1859 27.6744 10.9805 27.7085 10.7621C27.7425 10.5438 27.7181 10.3204 27.6377 10.1146C27.5573 9.90876 27.4237 9.72794 27.2507 9.59054C27.0776 9.45315 26.8713 9.36407 26.6526 9.3324L18.6776 8.1749L15.1126 0.949903C15.0094 0.740571 14.8497 0.564297 14.6516 0.441034C14.4534 0.317771 14.2247 0.252441 13.9913 0.252441C13.758 0.252441 13.5292 0.317771 13.3311 0.441034C13.1329 0.564297 12.9732 0.740571 12.8701 0.949903L9.30382 8.1749Z" fill="#00176F"/>
</svg>
