<svg width="38" height="36" viewBox="0 0 38 36" fill="none" xmlns="http://www.w3.org/2000/svg">
<path d="M12.7383 11.2334L2.10501 12.7751L1.91667 12.8134C1.63157 12.8891 1.37166 13.0391 1.16349 13.2481C0.955322 13.4571 0.806346 13.7176 0.731777 14.003C0.657208 14.2884 0.659719 14.5885 0.739053 14.8726C0.818386 15.1567 0.971701 15.4146 1.18334 15.6201L8.88667 23.1184L7.07001 33.7101L7.04834 33.8934C7.03089 34.1883 7.09212 34.4825 7.22576 34.746C7.3594 35.0094 7.56065 35.2326 7.8089 35.3926C8.05715 35.5527 8.34349 35.6439 8.63859 35.657C8.93369 35.67 9.22695 35.6044 9.48834 35.4668L18.9983 30.4668L28.4867 35.4668L28.6533 35.5434C28.9284 35.6518 29.2274 35.685 29.5196 35.6397C29.8118 35.5944 30.0866 35.4722 30.316 35.2856C30.5453 35.099 30.7209 34.8547 30.8247 34.5778C30.9285 34.301 30.9568 34.0015 30.9067 33.7101L29.0883 23.1184L36.795 15.6184L36.925 15.4768C37.1107 15.2481 37.2325 14.9742 37.2779 14.6831C37.3233 14.392 37.2907 14.0941 37.1835 13.8197C37.0763 13.5453 36.8982 13.3042 36.6675 13.121C36.4367 12.9378 36.1616 12.819 35.87 12.7768L25.2367 11.2334L20.4833 1.60012C20.3458 1.32101 20.1329 1.08597 19.8687 0.921622C19.6044 0.757272 19.2995 0.670166 18.9883 0.670166C18.6772 0.670166 18.3722 0.757272 18.108 0.921622C17.8438 1.08597 17.6309 1.32101 17.4933 1.60012L12.7383 11.2334Z" fill="#A2A5B4"/>
</svg>
