<svg width="19" height="19" viewBox="0 0 19 19" fill="none" xmlns="http://www.w3.org/2000/svg">
<path fill-rule="evenodd" clip-rule="evenodd" d="M8.90436 0.00778873L8.44536 0.0553273C6.21813 0.27757 3.97426 1.42563 2.45694 3.12038C0.779088 4.99458 -0.0735126 7.32041 0.00496946 9.79835C0.141718 14.078 3.08479 17.7016 7.2598 18.7332C8.48902 19.0299 9.76494 19.0797 11.0136 18.8798C12.2622 18.6798 13.4587 18.2341 14.5337 17.5685C16.6477 16.2521 18.1607 14.1595 18.7479 11.7403C18.9524 10.9072 19 10.4829 19 9.49767C19 8.51244 18.9524 8.08815 18.7479 7.25504C17.8061 3.41036 14.6383 0.581817 10.6964 0.0660235C10.3587 0.0220503 9.13029 -0.017169 8.90436 0.00778873ZM10.5216 1.84753C11.8573 2.02327 13.1241 2.54389 14.1971 3.35807C14.5884 3.65043 15.3577 4.41937 15.6502 4.81037C16.3173 5.70291 16.8108 6.75232 17.0344 7.75657C17.2889 8.90337 17.2889 10.092 17.0344 11.2388C16.5421 13.4505 14.9831 15.4138 12.9165 16.424C12.1714 16.7885 11.3743 17.0354 10.5537 17.1561C10.0495 17.2334 8.965 17.2334 8.46081 17.1561C6.1444 16.8043 4.18949 15.541 2.95875 13.5991C2.65602 13.0974 2.4035 12.5672 2.20484 12.016C1.92161 11.2071 1.78275 10.3547 1.7946 9.49767C1.7946 8.26286 2.03361 7.20988 2.56277 6.12244C2.96707 5.29289 3.37851 4.72005 4.05274 4.04619C4.64909 3.42797 5.35302 2.92337 6.13014 2.55704C7.49172 1.89229 9.01977 1.64541 10.5216 1.84753ZM9.15764 5.08847C8.89128 5.17523 8.74026 5.32735 8.66653 5.58168C8.62372 5.72668 8.61897 6.05826 8.6261 8.09053C8.63561 10.4318 8.63561 10.433 8.70458 10.5625C8.79519 10.7285 8.94061 10.8579 9.11602 10.9286C9.27298 10.9833 9.7415 10.9833 9.89846 10.9286C10.0739 10.8579 10.2193 10.7285 10.3099 10.5625C10.3789 10.433 10.3789 10.4318 10.3884 8.09053C10.3979 5.53296 10.3979 5.53058 10.216 5.31547C10.0685 5.13958 9.91035 5.08134 9.55481 5.07183C9.42219 5.06436 9.28916 5.06994 9.15764 5.08847ZM9.25277 12.5045C9.01486 12.5895 8.81698 12.7598 8.69745 12.9822C8.6116 13.1954 8.60112 13.4314 8.66772 13.6514C8.73202 13.8235 8.84625 13.9726 8.99581 14.0795C9.14536 14.1864 9.32344 14.2463 9.50724 14.2515C9.86755 14.2515 10.235 13.9901 10.3468 13.6514C10.4134 13.4314 10.4029 13.1954 10.317 12.9822C10.2186 12.8086 10.0758 12.6643 9.90322 12.5639C9.76528 12.4926 9.39309 12.4581 9.25277 12.5045Z" fill="#7E8DC5"/>
</svg>
